<mxfile host="Electron" modified="2024-05-18T16:47:10.628Z" agent="Mozilla/5.0 (Windows NT 10.0; Win64; x64) AppleWebKit/537.36 (KHTML, like Gecko) draw.io/24.1.0 Chrome/120.0.6099.109 Electron/28.1.0 Safari/537.36" etag="WA_m73g4JWMZuZOqOXwt" version="24.1.0" type="device">
  <diagram name="Page-1" id="7e0a89b8-554c-2b80-1dc8-d5c74ca68de4">
    <mxGraphModel dx="2036" dy="1040" grid="1" gridSize="10" guides="1" tooltips="1" connect="1" arrows="1" fold="1" page="1" pageScale="1" pageWidth="1100" pageHeight="850" background="none" math="0" shadow="0">
      <root>
        <mxCell id="0" />
        <mxCell id="1" parent="0" />
        <mxCell id="Pd6MdkzY4uPQfDYBk9mX-1" value="Processing (convert &amp;amp; calibrate): Temp, Lux, V, I, P, Active load, Efficiency" style="text;strokeColor=none;fillColor=none;html=1;fontSize=24;fontStyle=1;verticalAlign=middle;align=center;" vertex="1" parent="1">
          <mxGeometry x="490" y="60" width="100" height="40" as="geometry" />
        </mxCell>
        <mxCell id="Pd6MdkzY4uPQfDYBk9mX-11" value="" style="edgeStyle=orthogonalEdgeStyle;rounded=0;orthogonalLoop=1;jettySize=auto;html=1;" edge="1" parent="1" source="Pd6MdkzY4uPQfDYBk9mX-2" target="Pd6MdkzY4uPQfDYBk9mX-10">
          <mxGeometry relative="1" as="geometry" />
        </mxCell>
        <mxCell id="Pd6MdkzY4uPQfDYBk9mX-2" value="" style="ellipse;whiteSpace=wrap;html=1;aspect=fixed;" vertex="1" parent="1">
          <mxGeometry x="50" y="193" width="20" height="20" as="geometry" />
        </mxCell>
        <mxCell id="Pd6MdkzY4uPQfDYBk9mX-13" value="" style="edgeStyle=orthogonalEdgeStyle;rounded=0;orthogonalLoop=1;jettySize=auto;html=1;" edge="1" parent="1" source="Pd6MdkzY4uPQfDYBk9mX-10" target="Pd6MdkzY4uPQfDYBk9mX-12">
          <mxGeometry relative="1" as="geometry" />
        </mxCell>
        <mxCell id="Pd6MdkzY4uPQfDYBk9mX-10" value="Connect LM325&lt;div&gt;Output to PA0&lt;/div&gt;" style="whiteSpace=wrap;html=1;" vertex="1" parent="1">
          <mxGeometry x="100" y="173" width="120" height="60" as="geometry" />
        </mxCell>
        <mxCell id="Pd6MdkzY4uPQfDYBk9mX-15" value="" style="edgeStyle=orthogonalEdgeStyle;rounded=0;orthogonalLoop=1;jettySize=auto;html=1;" edge="1" parent="1" source="Pd6MdkzY4uPQfDYBk9mX-12" target="Pd6MdkzY4uPQfDYBk9mX-14">
          <mxGeometry relative="1" as="geometry" />
        </mxCell>
        <mxCell id="Pd6MdkzY4uPQfDYBk9mX-12" value="Configure PA0 as ADC input (channel 0)&lt;div&gt;(default parameters)&lt;/div&gt;" style="whiteSpace=wrap;html=1;" vertex="1" parent="1">
          <mxGeometry x="245" y="173" width="120" height="60" as="geometry" />
        </mxCell>
        <mxCell id="Pd6MdkzY4uPQfDYBk9mX-17" value="" style="edgeStyle=orthogonalEdgeStyle;rounded=0;orthogonalLoop=1;jettySize=auto;html=1;" edge="1" parent="1" source="Pd6MdkzY4uPQfDYBk9mX-14" target="Pd6MdkzY4uPQfDYBk9mX-16">
          <mxGeometry relative="1" as="geometry" />
        </mxCell>
        <mxCell id="Pd6MdkzY4uPQfDYBk9mX-14" value="start ADC1_IN0" style="whiteSpace=wrap;html=1;" vertex="1" parent="1">
          <mxGeometry x="387" y="173" width="120" height="60" as="geometry" />
        </mxCell>
        <mxCell id="Pd6MdkzY4uPQfDYBk9mX-23" value="" style="edgeStyle=orthogonalEdgeStyle;rounded=0;orthogonalLoop=1;jettySize=auto;html=1;" edge="1" parent="1" source="Pd6MdkzY4uPQfDYBk9mX-16" target="Pd6MdkzY4uPQfDYBk9mX-22">
          <mxGeometry relative="1" as="geometry" />
        </mxCell>
        <mxCell id="Pd6MdkzY4uPQfDYBk9mX-16" value="Get RAW adc value" style="whiteSpace=wrap;html=1;" vertex="1" parent="1">
          <mxGeometry x="533" y="173" width="120" height="60" as="geometry" />
        </mxCell>
        <mxCell id="Pd6MdkzY4uPQfDYBk9mX-21" value="" style="edgeStyle=orthogonalEdgeStyle;rounded=0;orthogonalLoop=1;jettySize=auto;html=1;" edge="1" parent="1" source="Pd6MdkzY4uPQfDYBk9mX-18" target="Pd6MdkzY4uPQfDYBk9mX-20">
          <mxGeometry relative="1" as="geometry" />
        </mxCell>
        <mxCell id="Pd6MdkzY4uPQfDYBk9mX-18" value="Get input Voltage&lt;div&gt;(Transform ADC eq.&lt;span style=&quot;background-color: initial;&quot;&gt;)&lt;/span&gt;&lt;/div&gt;" style="whiteSpace=wrap;html=1;" vertex="1" parent="1">
          <mxGeometry x="830" y="173" width="120" height="60" as="geometry" />
        </mxCell>
        <mxCell id="Pd6MdkzY4uPQfDYBk9mX-20" value="Caculate temperature using Vin&lt;div&gt;- return temperature&lt;/div&gt;" style="whiteSpace=wrap;html=1;" vertex="1" parent="1">
          <mxGeometry x="979" y="173" width="120" height="60" as="geometry" />
        </mxCell>
        <mxCell id="Pd6MdkzY4uPQfDYBk9mX-24" value="" style="edgeStyle=orthogonalEdgeStyle;rounded=0;orthogonalLoop=1;jettySize=auto;html=1;" edge="1" parent="1" source="Pd6MdkzY4uPQfDYBk9mX-22" target="Pd6MdkzY4uPQfDYBk9mX-18">
          <mxGeometry relative="1" as="geometry" />
        </mxCell>
        <mxCell id="Pd6MdkzY4uPQfDYBk9mX-22" value="stop ADC1_IN0" style="whiteSpace=wrap;html=1;" vertex="1" parent="1">
          <mxGeometry x="678" y="173" width="120" height="60" as="geometry" />
        </mxCell>
        <mxCell id="Pd6MdkzY4uPQfDYBk9mX-27" value="" style="endArrow=classic;html=1;rounded=0;entryX=0.442;entryY=1;entryDx=0;entryDy=0;entryPerimeter=0;exitX=0.632;exitY=0.993;exitDx=0;exitDy=0;exitPerimeter=0;" edge="1" parent="1" source="Pd6MdkzY4uPQfDYBk9mX-20" target="Pd6MdkzY4uPQfDYBk9mX-14">
          <mxGeometry width="50" height="50" relative="1" as="geometry">
            <mxPoint x="960" y="323" as="sourcePoint" />
            <mxPoint x="810" y="253" as="targetPoint" />
            <Array as="points">
              <mxPoint x="1055" y="283" />
              <mxPoint x="440" y="283" />
            </Array>
          </mxGeometry>
        </mxCell>
        <mxCell id="Pd6MdkzY4uPQfDYBk9mX-30" value="&lt;b&gt;&lt;font style=&quot;font-size: 14px;&quot;&gt;REPEAT&lt;/font&gt;&lt;/b&gt;" style="edgeLabel;html=1;align=center;verticalAlign=middle;resizable=0;points=[];" vertex="1" connectable="0" parent="Pd6MdkzY4uPQfDYBk9mX-27">
          <mxGeometry x="-0.0418" relative="1" as="geometry">
            <mxPoint x="-1" as="offset" />
          </mxGeometry>
        </mxCell>
        <mxCell id="Pd6MdkzY4uPQfDYBk9mX-31" value="Temp" style="text;strokeColor=none;fillColor=none;html=1;fontSize=24;fontStyle=1;verticalAlign=middle;align=center;" vertex="1" parent="1">
          <mxGeometry x="533" y="120" width="100" height="40" as="geometry" />
        </mxCell>
        <mxCell id="Pd6MdkzY4uPQfDYBk9mX-42" value="" style="edgeStyle=orthogonalEdgeStyle;rounded=0;orthogonalLoop=1;jettySize=auto;html=1;" edge="1" parent="1" source="Pd6MdkzY4uPQfDYBk9mX-32">
          <mxGeometry relative="1" as="geometry">
            <mxPoint x="102" y="495" as="targetPoint" />
          </mxGeometry>
        </mxCell>
        <mxCell id="Pd6MdkzY4uPQfDYBk9mX-32" value="" style="ellipse;whiteSpace=wrap;html=1;" vertex="1" parent="1">
          <mxGeometry x="52" y="485" width="20" height="20" as="geometry" />
        </mxCell>
        <mxCell id="Pd6MdkzY4uPQfDYBk9mX-40" value="LUX" style="text;strokeColor=none;fillColor=none;html=1;fontSize=24;fontStyle=1;verticalAlign=middle;align=center;" vertex="1" parent="1">
          <mxGeometry x="530" y="340" width="100" height="40" as="geometry" />
        </mxCell>
        <mxCell id="Pd6MdkzY4uPQfDYBk9mX-46" style="edgeStyle=orthogonalEdgeStyle;rounded=0;orthogonalLoop=1;jettySize=auto;html=1;entryX=0;entryY=0.5;entryDx=0;entryDy=0;" edge="1" parent="1" source="Pd6MdkzY4uPQfDYBk9mX-43" target="Pd6MdkzY4uPQfDYBk9mX-45">
          <mxGeometry relative="1" as="geometry" />
        </mxCell>
        <mxCell id="Pd6MdkzY4uPQfDYBk9mX-43" value="Configure PC4 as ADC input (channel 14)" style="whiteSpace=wrap;html=1;" vertex="1" parent="1">
          <mxGeometry x="104" y="465" width="120" height="60" as="geometry" />
        </mxCell>
        <mxCell id="Pd6MdkzY4uPQfDYBk9mX-69" value="" style="edgeStyle=orthogonalEdgeStyle;rounded=0;orthogonalLoop=1;jettySize=auto;html=1;" edge="1" parent="1" source="Pd6MdkzY4uPQfDYBk9mX-45" target="Pd6MdkzY4uPQfDYBk9mX-68">
          <mxGeometry relative="1" as="geometry" />
        </mxCell>
        <mxCell id="Pd6MdkzY4uPQfDYBk9mX-45" value="Connect Op-Amp outout to PC4" style="whiteSpace=wrap;html=1;" vertex="1" parent="1">
          <mxGeometry x="256" y="465" width="120" height="60" as="geometry" />
        </mxCell>
        <mxCell id="Pd6MdkzY4uPQfDYBk9mX-55" value="" style="edgeStyle=orthogonalEdgeStyle;rounded=0;orthogonalLoop=1;jettySize=auto;html=1;" edge="1" parent="1" source="Pd6MdkzY4uPQfDYBk9mX-47" target="Pd6MdkzY4uPQfDYBk9mX-54">
          <mxGeometry relative="1" as="geometry" />
        </mxCell>
        <mxCell id="Pd6MdkzY4uPQfDYBk9mX-47" value="start ADC1_IN14" style="whiteSpace=wrap;html=1;" vertex="1" parent="1">
          <mxGeometry x="580" y="465" width="120" height="60" as="geometry" />
        </mxCell>
        <mxCell id="Pd6MdkzY4uPQfDYBk9mX-51" value="" style="edgeStyle=orthogonalEdgeStyle;rounded=0;orthogonalLoop=1;jettySize=auto;html=1;fontStyle=1" edge="1" parent="1" source="Pd6MdkzY4uPQfDYBk9mX-49" target="Pd6MdkzY4uPQfDYBk9mX-47">
          <mxGeometry relative="1" as="geometry" />
        </mxCell>
        <mxCell id="Pd6MdkzY4uPQfDYBk9mX-53" value="TRUE" style="edgeLabel;html=1;align=center;verticalAlign=middle;resizable=0;points=[];" vertex="1" connectable="0" parent="Pd6MdkzY4uPQfDYBk9mX-51">
          <mxGeometry x="-0.0077" y="-1" relative="1" as="geometry">
            <mxPoint as="offset" />
          </mxGeometry>
        </mxCell>
        <mxCell id="Pd6MdkzY4uPQfDYBk9mX-71" style="edgeStyle=orthogonalEdgeStyle;rounded=0;orthogonalLoop=1;jettySize=auto;html=1;entryX=1;entryY=0.5;entryDx=0;entryDy=0;" edge="1" parent="1" source="Pd6MdkzY4uPQfDYBk9mX-49" target="Pd6MdkzY4uPQfDYBk9mX-68">
          <mxGeometry relative="1" as="geometry" />
        </mxCell>
        <mxCell id="Pd6MdkzY4uPQfDYBk9mX-72" value="FALSE" style="edgeLabel;html=1;align=center;verticalAlign=middle;resizable=0;points=[];" vertex="1" connectable="0" parent="Pd6MdkzY4uPQfDYBk9mX-71">
          <mxGeometry x="-0.0476" y="-1" relative="1" as="geometry">
            <mxPoint as="offset" />
          </mxGeometry>
        </mxCell>
        <mxCell id="Pd6MdkzY4uPQfDYBk9mX-49" value="Environment Meaure" style="rhombus;whiteSpace=wrap;html=1;" vertex="1" parent="1">
          <mxGeometry x="446" y="455" width="80" height="80" as="geometry" />
        </mxCell>
        <mxCell id="Pd6MdkzY4uPQfDYBk9mX-57" value="" style="edgeStyle=orthogonalEdgeStyle;rounded=0;orthogonalLoop=1;jettySize=auto;html=1;" edge="1" parent="1" source="Pd6MdkzY4uPQfDYBk9mX-54" target="Pd6MdkzY4uPQfDYBk9mX-56">
          <mxGeometry relative="1" as="geometry" />
        </mxCell>
        <mxCell id="Pd6MdkzY4uPQfDYBk9mX-54" value="Get RAW adc value" style="whiteSpace=wrap;html=1;" vertex="1" parent="1">
          <mxGeometry x="728" y="465" width="120" height="60" as="geometry" />
        </mxCell>
        <mxCell id="Pd6MdkzY4uPQfDYBk9mX-59" value="" style="edgeStyle=orthogonalEdgeStyle;rounded=0;orthogonalLoop=1;jettySize=auto;html=1;" edge="1" parent="1" source="Pd6MdkzY4uPQfDYBk9mX-56" target="Pd6MdkzY4uPQfDYBk9mX-58">
          <mxGeometry relative="1" as="geometry">
            <Array as="points">
              <mxPoint x="1040" y="480" />
              <mxPoint x="1040" y="480" />
            </Array>
          </mxGeometry>
        </mxCell>
        <mxCell id="Pd6MdkzY4uPQfDYBk9mX-56" value="stop ADC1_IN14" style="whiteSpace=wrap;html=1;" vertex="1" parent="1">
          <mxGeometry x="886" y="465" width="120" height="60" as="geometry" />
        </mxCell>
        <mxCell id="Pd6MdkzY4uPQfDYBk9mX-61" value="" style="edgeStyle=orthogonalEdgeStyle;rounded=0;orthogonalLoop=1;jettySize=auto;html=1;" edge="1" parent="1" source="Pd6MdkzY4uPQfDYBk9mX-58" target="Pd6MdkzY4uPQfDYBk9mX-60">
          <mxGeometry relative="1" as="geometry" />
        </mxCell>
        <mxCell id="Pd6MdkzY4uPQfDYBk9mX-58" value="Get input Voltage&lt;div&gt;(Transform ADC eq.&lt;span style=&quot;background-color: initial;&quot;&gt;)&lt;/span&gt;&lt;/div&gt;" style="whiteSpace=wrap;html=1;" vertex="1" parent="1">
          <mxGeometry x="1038" y="465" width="120" height="60" as="geometry" />
        </mxCell>
        <mxCell id="Pd6MdkzY4uPQfDYBk9mX-63" value="" style="edgeStyle=orthogonalEdgeStyle;rounded=0;orthogonalLoop=1;jettySize=auto;html=1;" edge="1" parent="1" source="Pd6MdkzY4uPQfDYBk9mX-60" target="Pd6MdkzY4uPQfDYBk9mX-62">
          <mxGeometry relative="1" as="geometry" />
        </mxCell>
        <mxCell id="Pd6MdkzY4uPQfDYBk9mX-60" value="Get photodiode using input voltage" style="whiteSpace=wrap;html=1;" vertex="1" parent="1">
          <mxGeometry x="1038" y="605" width="120" height="60" as="geometry" />
        </mxCell>
        <mxCell id="Pd6MdkzY4uPQfDYBk9mX-65" value="" style="edgeStyle=orthogonalEdgeStyle;rounded=0;orthogonalLoop=1;jettySize=auto;html=1;" edge="1" parent="1" source="Pd6MdkzY4uPQfDYBk9mX-62" target="Pd6MdkzY4uPQfDYBk9mX-64">
          <mxGeometry relative="1" as="geometry" />
        </mxCell>
        <mxCell id="Pd6MdkzY4uPQfDYBk9mX-62" value="Reverse current eq. to calculate lux&amp;nbsp;" style="whiteSpace=wrap;html=1;" vertex="1" parent="1">
          <mxGeometry x="838" y="605" width="120" height="60" as="geometry" />
        </mxCell>
        <mxCell id="Pd6MdkzY4uPQfDYBk9mX-66" style="edgeStyle=orthogonalEdgeStyle;rounded=0;orthogonalLoop=1;jettySize=auto;html=1;" edge="1" parent="1">
          <mxGeometry relative="1" as="geometry">
            <mxPoint x="487" y="536" as="targetPoint" />
            <mxPoint x="638" y="631" as="sourcePoint" />
          </mxGeometry>
        </mxCell>
        <mxCell id="Pd6MdkzY4uPQfDYBk9mX-64" value="return lux value" style="whiteSpace=wrap;html=1;" vertex="1" parent="1">
          <mxGeometry x="638" y="605" width="120" height="60" as="geometry" />
        </mxCell>
        <mxCell id="Pd6MdkzY4uPQfDYBk9mX-68" value="initialise lux to 0" style="whiteSpace=wrap;html=1;" vertex="1" parent="1">
          <mxGeometry x="256" y="601" width="120" height="60" as="geometry" />
        </mxCell>
        <mxCell id="Pd6MdkzY4uPQfDYBk9mX-73" value="" style="endArrow=classic;html=1;rounded=0;entryX=0.5;entryY=0;entryDx=0;entryDy=0;" edge="1" parent="1" target="Pd6MdkzY4uPQfDYBk9mX-49">
          <mxGeometry width="50" height="50" relative="1" as="geometry">
            <mxPoint x="360" y="600" as="sourcePoint" />
            <mxPoint x="430" y="340" as="targetPoint" />
            <Array as="points">
              <mxPoint x="360" y="550" />
              <mxPoint x="400" y="550" />
              <mxPoint x="400" y="520" />
              <mxPoint x="400" y="430" />
              <mxPoint x="486" y="430" />
            </Array>
          </mxGeometry>
        </mxCell>
        <mxCell id="Pd6MdkzY4uPQfDYBk9mX-76" value="Data flow Processing - PV -Voltage, Current, Power" style="text;strokeColor=none;fillColor=none;html=1;fontSize=24;fontStyle=1;verticalAlign=middle;align=center;" vertex="1" parent="1">
          <mxGeometry x="546" y="748" width="100" height="40" as="geometry" />
        </mxCell>
        <mxCell id="Pd6MdkzY4uPQfDYBk9mX-80" value="" style="edgeStyle=orthogonalEdgeStyle;rounded=0;orthogonalLoop=1;jettySize=auto;html=1;" edge="1" parent="1" source="Pd6MdkzY4uPQfDYBk9mX-77" target="Pd6MdkzY4uPQfDYBk9mX-79">
          <mxGeometry relative="1" as="geometry" />
        </mxCell>
        <mxCell id="Pd6MdkzY4uPQfDYBk9mX-77" value="" style="ellipse;whiteSpace=wrap;html=1;" vertex="1" parent="1">
          <mxGeometry x="55" y="860" width="20" height="20" as="geometry" />
        </mxCell>
        <mxCell id="Pd6MdkzY4uPQfDYBk9mX-82" value="" style="edgeStyle=orthogonalEdgeStyle;rounded=0;orthogonalLoop=1;jettySize=auto;html=1;" edge="1" parent="1" source="Pd6MdkzY4uPQfDYBk9mX-79" target="Pd6MdkzY4uPQfDYBk9mX-81">
          <mxGeometry relative="1" as="geometry" />
        </mxCell>
        <mxCell id="Pd6MdkzY4uPQfDYBk9mX-79" value="Configure PB1 and PC5 as ADC input (ch9 +ch15)" style="whiteSpace=wrap;html=1;" vertex="1" parent="1">
          <mxGeometry x="105" y="840" width="120" height="60" as="geometry" />
        </mxCell>
        <mxCell id="Pd6MdkzY4uPQfDYBk9mX-93" value="" style="edgeStyle=orthogonalEdgeStyle;rounded=0;orthogonalLoop=1;jettySize=auto;html=1;" edge="1" parent="1" source="Pd6MdkzY4uPQfDYBk9mX-81" target="Pd6MdkzY4uPQfDYBk9mX-92">
          <mxGeometry relative="1" as="geometry" />
        </mxCell>
        <mxCell id="Pd6MdkzY4uPQfDYBk9mX-81" value="Variables I, P ,V1 and V2 I&lt;span style=&quot;background-color: initial;&quot;&gt;nitialise to 0&lt;/span&gt;" style="whiteSpace=wrap;html=1;" vertex="1" parent="1">
          <mxGeometry x="264" y="840" width="120" height="60" as="geometry" />
        </mxCell>
        <mxCell id="Pd6MdkzY4uPQfDYBk9mX-86" value="" style="edgeStyle=orthogonalEdgeStyle;rounded=0;orthogonalLoop=1;jettySize=auto;html=1;" edge="1" parent="1" source="Pd6MdkzY4uPQfDYBk9mX-83" target="Pd6MdkzY4uPQfDYBk9mX-85">
          <mxGeometry relative="1" as="geometry" />
        </mxCell>
        <mxCell id="Pd6MdkzY4uPQfDYBk9mX-83" value="start ADC1_IN9" style="whiteSpace=wrap;html=1;" vertex="1" parent="1">
          <mxGeometry x="555" y="840" width="120" height="60" as="geometry" />
        </mxCell>
        <mxCell id="Pd6MdkzY4uPQfDYBk9mX-88" value="" style="edgeStyle=orthogonalEdgeStyle;rounded=0;orthogonalLoop=1;jettySize=auto;html=1;" edge="1" parent="1" source="Pd6MdkzY4uPQfDYBk9mX-85" target="Pd6MdkzY4uPQfDYBk9mX-87">
          <mxGeometry relative="1" as="geometry" />
        </mxCell>
        <mxCell id="Pd6MdkzY4uPQfDYBk9mX-85" value="Get RAW adc value" style="whiteSpace=wrap;html=1;" vertex="1" parent="1">
          <mxGeometry x="714" y="840" width="120" height="60" as="geometry" />
        </mxCell>
        <mxCell id="Pd6MdkzY4uPQfDYBk9mX-90" value="" style="edgeStyle=orthogonalEdgeStyle;rounded=0;orthogonalLoop=1;jettySize=auto;html=1;" edge="1" parent="1" source="Pd6MdkzY4uPQfDYBk9mX-87" target="Pd6MdkzY4uPQfDYBk9mX-89">
          <mxGeometry relative="1" as="geometry" />
        </mxCell>
        <mxCell id="Pd6MdkzY4uPQfDYBk9mX-87" value="stop ADC1_IN9" style="whiteSpace=wrap;html=1;" vertex="1" parent="1">
          <mxGeometry x="867" y="840" width="120" height="60" as="geometry" />
        </mxCell>
        <mxCell id="Pd6MdkzY4uPQfDYBk9mX-96" value="" style="edgeStyle=orthogonalEdgeStyle;rounded=0;orthogonalLoop=1;jettySize=auto;html=1;" edge="1" parent="1" source="Pd6MdkzY4uPQfDYBk9mX-89" target="Pd6MdkzY4uPQfDYBk9mX-95">
          <mxGeometry relative="1" as="geometry" />
        </mxCell>
        <mxCell id="Pd6MdkzY4uPQfDYBk9mX-89" value="Get input Voltage&lt;div&gt;(Transform ADC eq.&lt;span style=&quot;background-color: initial;&quot;&gt;)&lt;/span&gt;&lt;/div&gt;" style="whiteSpace=wrap;html=1;" vertex="1" parent="1">
          <mxGeometry x="1018" y="840" width="120" height="60" as="geometry" />
        </mxCell>
        <mxCell id="Pd6MdkzY4uPQfDYBk9mX-94" value="" style="edgeStyle=orthogonalEdgeStyle;rounded=0;orthogonalLoop=1;jettySize=auto;html=1;" edge="1" parent="1" source="Pd6MdkzY4uPQfDYBk9mX-92" target="Pd6MdkzY4uPQfDYBk9mX-83">
          <mxGeometry relative="1" as="geometry" />
        </mxCell>
        <mxCell id="Pd6MdkzY4uPQfDYBk9mX-115" value="TRUE" style="edgeLabel;html=1;align=center;verticalAlign=middle;resizable=0;points=[];" vertex="1" connectable="0" parent="Pd6MdkzY4uPQfDYBk9mX-94">
          <mxGeometry x="0.0348" relative="1" as="geometry">
            <mxPoint as="offset" />
          </mxGeometry>
        </mxCell>
        <mxCell id="Pd6MdkzY4uPQfDYBk9mX-92" value="Panel Measurement" style="rhombus;whiteSpace=wrap;html=1;" vertex="1" parent="1">
          <mxGeometry x="438" y="830" width="80" height="80" as="geometry" />
        </mxCell>
        <mxCell id="Pd6MdkzY4uPQfDYBk9mX-98" value="" style="edgeStyle=orthogonalEdgeStyle;rounded=0;orthogonalLoop=1;jettySize=auto;html=1;" edge="1" parent="1" source="Pd6MdkzY4uPQfDYBk9mX-95" target="Pd6MdkzY4uPQfDYBk9mX-97">
          <mxGeometry relative="1" as="geometry" />
        </mxCell>
        <mxCell id="Pd6MdkzY4uPQfDYBk9mX-95" value="Caculate V1 using Vin and Resistor values&lt;div&gt;- update V1&lt;/div&gt;" style="whiteSpace=wrap;html=1;" vertex="1" parent="1">
          <mxGeometry x="1176" y="840" width="120" height="60" as="geometry" />
        </mxCell>
        <mxCell id="Pd6MdkzY4uPQfDYBk9mX-100" value="" style="edgeStyle=orthogonalEdgeStyle;rounded=0;orthogonalLoop=1;jettySize=auto;html=1;" edge="1" parent="1" source="Pd6MdkzY4uPQfDYBk9mX-97" target="Pd6MdkzY4uPQfDYBk9mX-99">
          <mxGeometry relative="1" as="geometry" />
        </mxCell>
        <mxCell id="Pd6MdkzY4uPQfDYBk9mX-97" value="start ADC1_IN15" style="whiteSpace=wrap;html=1;" vertex="1" parent="1">
          <mxGeometry x="1176" y="980" width="120" height="60" as="geometry" />
        </mxCell>
        <mxCell id="Pd6MdkzY4uPQfDYBk9mX-102" value="" style="edgeStyle=orthogonalEdgeStyle;rounded=0;orthogonalLoop=1;jettySize=auto;html=1;" edge="1" parent="1" source="Pd6MdkzY4uPQfDYBk9mX-99" target="Pd6MdkzY4uPQfDYBk9mX-101">
          <mxGeometry relative="1" as="geometry" />
        </mxCell>
        <mxCell id="Pd6MdkzY4uPQfDYBk9mX-99" value="Get RAW adc value" style="whiteSpace=wrap;html=1;" vertex="1" parent="1">
          <mxGeometry x="1024" y="980" width="120" height="60" as="geometry" />
        </mxCell>
        <mxCell id="Pd6MdkzY4uPQfDYBk9mX-104" value="" style="edgeStyle=orthogonalEdgeStyle;rounded=0;orthogonalLoop=1;jettySize=auto;html=1;" edge="1" parent="1" source="Pd6MdkzY4uPQfDYBk9mX-101" target="Pd6MdkzY4uPQfDYBk9mX-103">
          <mxGeometry relative="1" as="geometry" />
        </mxCell>
        <mxCell id="Pd6MdkzY4uPQfDYBk9mX-101" value="stop ADC1_IN15" style="whiteSpace=wrap;html=1;" vertex="1" parent="1">
          <mxGeometry x="877" y="980" width="120" height="60" as="geometry" />
        </mxCell>
        <mxCell id="Pd6MdkzY4uPQfDYBk9mX-106" value="" style="edgeStyle=orthogonalEdgeStyle;rounded=0;orthogonalLoop=1;jettySize=auto;html=1;" edge="1" parent="1" source="Pd6MdkzY4uPQfDYBk9mX-103" target="Pd6MdkzY4uPQfDYBk9mX-105">
          <mxGeometry relative="1" as="geometry" />
        </mxCell>
        <mxCell id="Pd6MdkzY4uPQfDYBk9mX-103" value="Get input Voltage&lt;div&gt;(Transform ADC eq.&lt;span style=&quot;background-color: initial;&quot;&gt;)&lt;/span&gt;&lt;/div&gt;" style="whiteSpace=wrap;html=1;" vertex="1" parent="1">
          <mxGeometry x="723" y="980" width="120" height="60" as="geometry" />
        </mxCell>
        <mxCell id="Pd6MdkzY4uPQfDYBk9mX-108" value="" style="edgeStyle=orthogonalEdgeStyle;rounded=0;orthogonalLoop=1;jettySize=auto;html=1;" edge="1" parent="1" source="Pd6MdkzY4uPQfDYBk9mX-105" target="Pd6MdkzY4uPQfDYBk9mX-107">
          <mxGeometry relative="1" as="geometry" />
        </mxCell>
        <mxCell id="Pd6MdkzY4uPQfDYBk9mX-105" value="Caculate V2 using Vin and Resistor values&lt;div&gt;- update V2&lt;/div&gt;" style="whiteSpace=wrap;html=1;" vertex="1" parent="1">
          <mxGeometry x="564" y="980" width="120" height="60" as="geometry" />
        </mxCell>
        <mxCell id="Pd6MdkzY4uPQfDYBk9mX-110" value="" style="edgeStyle=orthogonalEdgeStyle;rounded=0;orthogonalLoop=1;jettySize=auto;html=1;" edge="1" parent="1" source="Pd6MdkzY4uPQfDYBk9mX-107" target="Pd6MdkzY4uPQfDYBk9mX-109">
          <mxGeometry relative="1" as="geometry" />
        </mxCell>
        <mxCell id="Pd6MdkzY4uPQfDYBk9mX-107" value="Calculate Current I = V1-V2" style="whiteSpace=wrap;html=1;" vertex="1" parent="1">
          <mxGeometry x="564" y="1086" width="120" height="60" as="geometry" />
        </mxCell>
        <mxCell id="Pd6MdkzY4uPQfDYBk9mX-112" style="edgeStyle=orthogonalEdgeStyle;rounded=0;orthogonalLoop=1;jettySize=auto;html=1;entryX=0.5;entryY=1;entryDx=0;entryDy=0;" edge="1" parent="1" source="Pd6MdkzY4uPQfDYBk9mX-109" target="Pd6MdkzY4uPQfDYBk9mX-92">
          <mxGeometry relative="1" as="geometry">
            <Array as="points">
              <mxPoint x="785" y="1190" />
              <mxPoint x="478" y="1190" />
            </Array>
          </mxGeometry>
        </mxCell>
        <mxCell id="Pd6MdkzY4uPQfDYBk9mX-109" value="Calculate Power P" style="whiteSpace=wrap;html=1;" vertex="1" parent="1">
          <mxGeometry x="725" y="1086" width="120" height="60" as="geometry" />
        </mxCell>
        <mxCell id="Pd6MdkzY4uPQfDYBk9mX-117" style="edgeStyle=orthogonalEdgeStyle;rounded=0;orthogonalLoop=1;jettySize=auto;html=1;entryX=0.563;entryY=0.002;entryDx=0;entryDy=0;entryPerimeter=0;" edge="1" parent="1" source="Pd6MdkzY4uPQfDYBk9mX-92" target="Pd6MdkzY4uPQfDYBk9mX-81">
          <mxGeometry relative="1" as="geometry">
            <Array as="points">
              <mxPoint x="478" y="820" />
              <mxPoint x="332" y="820" />
            </Array>
          </mxGeometry>
        </mxCell>
        <mxCell id="Pd6MdkzY4uPQfDYBk9mX-118" value="FALSE" style="edgeLabel;html=1;align=center;verticalAlign=middle;resizable=0;points=[];" vertex="1" connectable="0" parent="Pd6MdkzY4uPQfDYBk9mX-117">
          <mxGeometry x="-0.0499" y="-4" relative="1" as="geometry">
            <mxPoint as="offset" />
          </mxGeometry>
        </mxCell>
        <mxCell id="Pd6MdkzY4uPQfDYBk9mX-121" value="Data flow Processing - Active load and efficiency" style="text;strokeColor=none;fillColor=none;html=1;fontSize=24;fontStyle=1;verticalAlign=middle;align=center;" vertex="1" parent="1">
          <mxGeometry x="555" y="1276" width="100" height="40" as="geometry" />
        </mxCell>
        <mxCell id="Pd6MdkzY4uPQfDYBk9mX-129" value="" style="edgeStyle=orthogonalEdgeStyle;rounded=0;orthogonalLoop=1;jettySize=auto;html=1;" edge="1" parent="1" source="Pd6MdkzY4uPQfDYBk9mX-122" target="Pd6MdkzY4uPQfDYBk9mX-128">
          <mxGeometry relative="1" as="geometry" />
        </mxCell>
        <mxCell id="Pd6MdkzY4uPQfDYBk9mX-122" value="" style="ellipse;whiteSpace=wrap;html=1;" vertex="1" parent="1">
          <mxGeometry x="90" y="1409" width="20" height="20" as="geometry" />
        </mxCell>
        <mxCell id="Pd6MdkzY4uPQfDYBk9mX-133" value="" style="edgeStyle=orthogonalEdgeStyle;rounded=0;orthogonalLoop=1;jettySize=auto;html=1;" edge="1" parent="1" source="Pd6MdkzY4uPQfDYBk9mX-128" target="Pd6MdkzY4uPQfDYBk9mX-132">
          <mxGeometry relative="1" as="geometry" />
        </mxCell>
        <mxCell id="Pd6MdkzY4uPQfDYBk9mX-128" value="Efficieny initialized to 0" style="whiteSpace=wrap;html=1;" vertex="1" parent="1">
          <mxGeometry x="140" y="1389" width="120" height="60" as="geometry" />
        </mxCell>
        <mxCell id="Pd6MdkzY4uPQfDYBk9mX-135" value="" style="edgeStyle=orthogonalEdgeStyle;rounded=0;orthogonalLoop=1;jettySize=auto;html=1;" edge="1" parent="1" source="Pd6MdkzY4uPQfDYBk9mX-132" target="Pd6MdkzY4uPQfDYBk9mX-134">
          <mxGeometry relative="1" as="geometry" />
        </mxCell>
        <mxCell id="Pd6MdkzY4uPQfDYBk9mX-132" value="CA measurement&amp;nbsp;" style="rhombus;whiteSpace=wrap;html=1;" vertex="1" parent="1">
          <mxGeometry x="360" y="1379" width="80" height="80" as="geometry" />
        </mxCell>
        <mxCell id="Pd6MdkzY4uPQfDYBk9mX-137" value="" style="edgeStyle=orthogonalEdgeStyle;rounded=0;orthogonalLoop=1;jettySize=auto;html=1;" edge="1" parent="1" source="Pd6MdkzY4uPQfDYBk9mX-134" target="Pd6MdkzY4uPQfDYBk9mX-136">
          <mxGeometry relative="1" as="geometry" />
        </mxCell>
        <mxCell id="Pd6MdkzY4uPQfDYBk9mX-134" value="EN Measurement sequence 2s" style="whiteSpace=wrap;html=1;" vertex="1" parent="1">
          <mxGeometry x="500" y="1389" width="120" height="60" as="geometry" />
        </mxCell>
        <mxCell id="Pd6MdkzY4uPQfDYBk9mX-139" value="" style="edgeStyle=orthogonalEdgeStyle;rounded=0;orthogonalLoop=1;jettySize=auto;html=1;" edge="1" parent="1" source="Pd6MdkzY4uPQfDYBk9mX-136" target="Pd6MdkzY4uPQfDYBk9mX-138">
          <mxGeometry relative="1" as="geometry" />
        </mxCell>
        <mxCell id="Pd6MdkzY4uPQfDYBk9mX-136" value="SP measurement sequence&lt;div&gt;-&amp;nbsp; sweep IV Curve by incrementing duty cycle&lt;/div&gt;" style="whiteSpace=wrap;html=1;" vertex="1" parent="1">
          <mxGeometry x="700" y="1389" width="120" height="60" as="geometry" />
        </mxCell>
        <mxCell id="Pd6MdkzY4uPQfDYBk9mX-143" value="" style="edgeStyle=orthogonalEdgeStyle;rounded=0;orthogonalLoop=1;jettySize=auto;html=1;" edge="1" parent="1" source="Pd6MdkzY4uPQfDYBk9mX-138" target="Pd6MdkzY4uPQfDYBk9mX-142">
          <mxGeometry relative="1" as="geometry" />
        </mxCell>
        <mxCell id="Pd6MdkzY4uPQfDYBk9mX-138" value="calculate power at calibration -&amp;nbsp; normalise" style="whiteSpace=wrap;html=1;" vertex="1" parent="1">
          <mxGeometry x="900" y="1389" width="120" height="60" as="geometry" />
        </mxCell>
        <mxCell id="Pd6MdkzY4uPQfDYBk9mX-145" value="" style="edgeStyle=orthogonalEdgeStyle;rounded=0;orthogonalLoop=1;jettySize=auto;html=1;" edge="1" parent="1" source="Pd6MdkzY4uPQfDYBk9mX-142" target="Pd6MdkzY4uPQfDYBk9mX-144">
          <mxGeometry relative="1" as="geometry" />
        </mxCell>
        <mxCell id="Pd6MdkzY4uPQfDYBk9mX-142" value="SP Measurement" style="rhombus;whiteSpace=wrap;html=1;" vertex="1" parent="1">
          <mxGeometry x="1120" y="1379" width="80" height="80" as="geometry" />
        </mxCell>
        <mxCell id="Pd6MdkzY4uPQfDYBk9mX-147" value="" style="edgeStyle=orthogonalEdgeStyle;rounded=0;orthogonalLoop=1;jettySize=auto;html=1;" edge="1" parent="1" source="Pd6MdkzY4uPQfDYBk9mX-144" target="Pd6MdkzY4uPQfDYBk9mX-146">
          <mxGeometry relative="1" as="geometry" />
        </mxCell>
        <mxCell id="Pd6MdkzY4uPQfDYBk9mX-144" value="Sweep through IV, MPP and normalise" style="whiteSpace=wrap;html=1;" vertex="1" parent="1">
          <mxGeometry x="1100" y="1549" width="120" height="60" as="geometry" />
        </mxCell>
        <mxCell id="Pd6MdkzY4uPQfDYBk9mX-149" value="" style="edgeStyle=orthogonalEdgeStyle;rounded=0;orthogonalLoop=1;jettySize=auto;html=1;" edge="1" parent="1" source="Pd6MdkzY4uPQfDYBk9mX-146" target="Pd6MdkzY4uPQfDYBk9mX-148">
          <mxGeometry relative="1" as="geometry" />
        </mxCell>
        <mxCell id="Pd6MdkzY4uPQfDYBk9mX-146" value="Get normalised power at MPP" style="whiteSpace=wrap;html=1;" vertex="1" parent="1">
          <mxGeometry x="900" y="1549" width="120" height="60" as="geometry" />
        </mxCell>
        <mxCell id="Pd6MdkzY4uPQfDYBk9mX-151" value="" style="edgeStyle=orthogonalEdgeStyle;rounded=0;orthogonalLoop=1;jettySize=auto;html=1;" edge="1" parent="1" source="Pd6MdkzY4uPQfDYBk9mX-148" target="Pd6MdkzY4uPQfDYBk9mX-150">
          <mxGeometry relative="1" as="geometry" />
        </mxCell>
        <mxCell id="Pd6MdkzY4uPQfDYBk9mX-148" value="calculate efficieny" style="whiteSpace=wrap;html=1;" vertex="1" parent="1">
          <mxGeometry x="700" y="1549" width="120" height="60" as="geometry" />
        </mxCell>
        <mxCell id="Pd6MdkzY4uPQfDYBk9mX-152" style="edgeStyle=orthogonalEdgeStyle;rounded=0;orthogonalLoop=1;jettySize=auto;html=1;entryX=0.5;entryY=1;entryDx=0;entryDy=0;" edge="1" parent="1" source="Pd6MdkzY4uPQfDYBk9mX-150" target="Pd6MdkzY4uPQfDYBk9mX-132">
          <mxGeometry relative="1" as="geometry" />
        </mxCell>
        <mxCell id="Pd6MdkzY4uPQfDYBk9mX-150" value="Print to UART/LCD" style="whiteSpace=wrap;html=1;" vertex="1" parent="1">
          <mxGeometry x="500" y="1549" width="120" height="60" as="geometry" />
        </mxCell>
        <mxCell id="Pd6MdkzY4uPQfDYBk9mX-153" style="edgeStyle=orthogonalEdgeStyle;rounded=0;orthogonalLoop=1;jettySize=auto;html=1;entryX=0.573;entryY=-0.004;entryDx=0;entryDy=0;entryPerimeter=0;" edge="1" parent="1" source="Pd6MdkzY4uPQfDYBk9mX-132" target="Pd6MdkzY4uPQfDYBk9mX-128">
          <mxGeometry relative="1" as="geometry">
            <Array as="points">
              <mxPoint x="400" y="1369" />
              <mxPoint x="209" y="1369" />
            </Array>
          </mxGeometry>
        </mxCell>
        <mxCell id="Pd6MdkzY4uPQfDYBk9mX-154" value="FALSE" style="edgeLabel;html=1;align=center;verticalAlign=middle;resizable=0;points=[];" vertex="1" connectable="0" parent="Pd6MdkzY4uPQfDYBk9mX-153">
          <mxGeometry x="-0.1969" y="2" relative="1" as="geometry">
            <mxPoint as="offset" />
          </mxGeometry>
        </mxCell>
      </root>
    </mxGraphModel>
  </diagram>
</mxfile>
